<?xml version="1.0" standalone="no"?>
<!DOCTYPE svg PUBLIC "-//W3C//DTD SVG 20010904//EN"
 "http://www.w3.org/TR/2001/REC-SVG-20010904/DTD/svg10.dtd">
<svg version="1.0" xmlns="http://www.w3.org/2000/svg"
 width="447.000000pt" height="447.000000pt" viewBox="0 0 447.000000 447.000000"
 preserveAspectRatio="xMidYMid meet">
<metadata>
Created by potrace 1.11, written by Peter Selinger 2001-2013
</metadata>
<g transform="translate(0.000000,447.000000) scale(0.100000,-0.100000)"
fill="#000000" stroke="none">
<path d="M750 3195 l0 -55 -55 0 -55 0 0 -60 0 -60 -60 0 -60 0 0 -175 0 -175
60 0 60 0 0 -60 0 -60 55 0 55 0 0 -55 0 -55 240 0 240 0 0 55 0 55 60 0 60 0
0 60 0 60 -125 0 -125 0 0 -55 0 -55 -110 0 -110 0 0 55 0 55 -55 0 -55 0 0
175 0 175 55 0 55 0 0 55 0 55 110 0 110 0 0 -55 0 -55 125 0 125 0 0 60 0 60
-60 0 -60 0 0 55 0 55 -240 0 -240 0 0 -55z"/>
<path d="M2468 3233 c-2 -10 -3 -100 -3 -200 1 -176 -1 -189 -29 -184 -4 1
-15 -1 -25 -4 -14 -4 -16 -27 -16 -195 1 -105 -2 -194 -5 -199 -3 -5 -16 -8
-30 -7 l-25 1 -3 -158 -3 -158 68 3 68 3 1 140 c1 77 2 147 3 157 1 11 10 16
34 16 31 0 32 -2 31 -39 -1 -44 5 -47 79 -45 53 1 64 12 61 55 l-2 30 64 -3
c68 -2 74 2 74 53 0 27 1 28 63 26 80 -2 79 -2 76 -22 -5 -59 -6 -58 96 -57
53 1 99 5 103 8 3 4 5 23 3 42 -2 32 -1 34 22 30 26 -4 49 5 46 20 -1 5 -1 20
0 34 1 22 6 26 34 25 30 0 32 2 37 41 5 37 7 40 35 40 l30 0 0 70 c1 71 8 96
28 93 43 -5 43 -4 43 119 l-1 117 -45 2 c-25 1 -49 2 -55 3 -5 1 -14 1 -20 0
-5 -2 -43 -2 -82 -1 l-73 2 0 -40 0 -41 -100 0 c-100 0 -100 0 -101 25 -1 14
-2 31 -3 38 0 6 -17 14 -36 17 -33 5 -35 7 -34 42 0 30 -4 37 -22 41 -13 2
-28 0 -36 -4 -7 -4 -18 -3 -24 2 -8 7 -14 7 -18 0 -14 -23 -36 2 -36 40 l0 39
-134 0 c-119 0 -134 -2 -138 -17z"/>
<path d="M1580 2960 l0 -60 230 0 230 0 0 -55 0 -55 -230 0 -230 0 0 -60 0
-60 -60 0 -61 0 3 -57 3 -58 58 -3 57 -3 0 -54 0 -55 355 0 355 0 0 235 0 235
-55 0 -55 0 0 55 0 55 -300 0 -300 0 0 -60z m460 -345 l0 -55 -165 0 -165 0 0
55 0 55 165 0 165 0 0 -55z"/>
<path d="M3600 2850 l0 -60 275 0 275 0 0 60 0 60 -275 0 -275 0 0 -60z"/>
<path d="M3555 2033 l0 -288 123 -3 122 -3 0 116 0 115 60 0 60 0 0 175 0 175
-183 0 -182 0 0 -287z"/>
<path d="M530 1740 l0 -350 120 0 120 0 0 115 0 115 235 0 235 0 0 60 0 60 55
0 55 0 0 120 0 120 -55 0 -55 0 0 55 0 55 -355 0 -355 0 0 -350z m580 115 l0
-115 -170 0 -170 0 0 115 0 115 170 0 170 0 0 -115z"/>
<path d="M1580 2035 l0 -55 -60 0 -60 0 0 -175 0 -175 60 0 60 0 0 -60 0 -60
295 0 295 0 0 60 0 60 60 0 60 0 0 175 0 175 -60 0 -60 0 0 55 0 55 -295 0
-295 0 0 -55z"/>
<path d="M2390 1855 l0 -235 60 0 60 0 0 -55 0 -55 355 0 355 0 0 290 0 290
-125 0 -125 0 0 -230 0 -230 -50 0 -50 0 0 230 0 230 -125 0 -125 0 0 -230 0
-230 -50 0 -50 0 0 230 0 230 -65 0 -65 0 0 -235z"/>
<path d="M3559 1628 c-1 -2 -2 -29 -4 -60 l-2 -58 123 0 124 0 0 60 0 60 -120
0 c-66 0 -121 -1 -121 -2z"/>
</g>
</svg>
